<mxfile host="app.diagrams.net" modified="2022-09-14T18:31:13.831Z" agent="5.0 (Macintosh; Intel Mac OS X 10_15_7) AppleWebKit/537.36 (KHTML, like Gecko) Chrome/105.0.0.0 Safari/537.36" etag="9bkNVP68eRAGamYDl_72" version="20.3.0" type="github">
  <diagram id="6zhuYc9gIJg85YQYfyod" name="Page-1">
    <mxGraphModel dx="1298" dy="866" grid="1" gridSize="10" guides="1" tooltips="1" connect="1" arrows="1" fold="1" page="1" pageScale="1" pageWidth="850" pageHeight="1100" math="0" shadow="0">
      <root>
        <mxCell id="0" />
        <mxCell id="1" parent="0" />
        <mxCell id="olm5dgiGOFT5ouL3xigB-4" style="edgeStyle=orthogonalEdgeStyle;rounded=0;orthogonalLoop=1;jettySize=auto;html=1;" parent="1" source="olm5dgiGOFT5ouL3xigB-1" target="olm5dgiGOFT5ouL3xigB-2" edge="1">
          <mxGeometry relative="1" as="geometry" />
        </mxCell>
        <mxCell id="olm5dgiGOFT5ouL3xigB-5" value="Request" style="edgeLabel;html=1;align=center;verticalAlign=middle;resizable=0;points=[];" parent="olm5dgiGOFT5ouL3xigB-4" vertex="1" connectable="0">
          <mxGeometry x="-0.4" y="-3" relative="1" as="geometry">
            <mxPoint as="offset" />
          </mxGeometry>
        </mxCell>
        <mxCell id="olm5dgiGOFT5ouL3xigB-1" value="Client" style="whiteSpace=wrap;html=1;aspect=fixed;" parent="1" vertex="1">
          <mxGeometry x="20" y="330" width="110" height="110" as="geometry" />
        </mxCell>
        <mxCell id="olm5dgiGOFT5ouL3xigB-2" value="Loab Balancer" style="rounded=0;whiteSpace=wrap;html=1;" parent="1" vertex="1">
          <mxGeometry x="230" y="355" width="120" height="60" as="geometry" />
        </mxCell>
        <mxCell id="olm5dgiGOFT5ouL3xigB-3" value="" style="endArrow=classic;html=1;rounded=0;entryX=0;entryY=0.5;entryDx=0;entryDy=0;exitX=1.029;exitY=0.617;exitDx=0;exitDy=0;exitPerimeter=0;" parent="1" source="olm5dgiGOFT5ouL3xigB-2" target="olm5dgiGOFT5ouL3xigB-6" edge="1">
          <mxGeometry width="50" height="50" relative="1" as="geometry">
            <mxPoint x="400" y="390" as="sourcePoint" />
            <mxPoint x="450" y="340" as="targetPoint" />
          </mxGeometry>
        </mxCell>
        <mxCell id="olm5dgiGOFT5ouL3xigB-6" value="App 1" style="rounded=0;whiteSpace=wrap;html=1;" parent="1" vertex="1">
          <mxGeometry x="470" y="300" width="120" height="60" as="geometry" />
        </mxCell>
        <mxCell id="olm5dgiGOFT5ouL3xigB-7" value="App3" style="rounded=0;whiteSpace=wrap;html=1;" parent="1" vertex="1">
          <mxGeometry x="470" y="500" width="120" height="60" as="geometry" />
        </mxCell>
        <mxCell id="olm5dgiGOFT5ouL3xigB-8" value="App2" style="rounded=0;whiteSpace=wrap;html=1;" parent="1" vertex="1">
          <mxGeometry x="470" y="400" width="120" height="60" as="geometry" />
        </mxCell>
        <mxCell id="olm5dgiGOFT5ouL3xigB-9" value="" style="endArrow=classic;html=1;rounded=0;exitX=1;exitY=0.75;exitDx=0;exitDy=0;entryX=0;entryY=0.5;entryDx=0;entryDy=0;" parent="1" source="olm5dgiGOFT5ouL3xigB-2" target="olm5dgiGOFT5ouL3xigB-8" edge="1">
          <mxGeometry width="50" height="50" relative="1" as="geometry">
            <mxPoint x="380" y="470" as="sourcePoint" />
            <mxPoint x="430" y="420" as="targetPoint" />
          </mxGeometry>
        </mxCell>
        <mxCell id="olm5dgiGOFT5ouL3xigB-10" value="" style="endArrow=classic;html=1;rounded=0;exitX=1;exitY=0.75;exitDx=0;exitDy=0;entryX=-0.008;entryY=0.65;entryDx=0;entryDy=0;entryPerimeter=0;" parent="1" source="olm5dgiGOFT5ouL3xigB-2" target="olm5dgiGOFT5ouL3xigB-7" edge="1">
          <mxGeometry width="50" height="50" relative="1" as="geometry">
            <mxPoint x="380" y="470" as="sourcePoint" />
            <mxPoint x="430" y="420" as="targetPoint" />
          </mxGeometry>
        </mxCell>
        <mxCell id="olm5dgiGOFT5ouL3xigB-11" value="Backed LB" style="rounded=0;whiteSpace=wrap;html=1;" parent="1" vertex="1">
          <mxGeometry x="750" y="400" width="120" height="60" as="geometry" />
        </mxCell>
        <mxCell id="olm5dgiGOFT5ouL3xigB-15" value="Backend App" style="rounded=0;whiteSpace=wrap;html=1;" parent="1" vertex="1">
          <mxGeometry x="950" y="300" width="120" height="60" as="geometry" />
        </mxCell>
        <mxCell id="olm5dgiGOFT5ouL3xigB-16" value="Backend App" style="rounded=0;whiteSpace=wrap;html=1;" parent="1" vertex="1">
          <mxGeometry x="950" y="490" width="120" height="60" as="geometry" />
        </mxCell>
        <mxCell id="olm5dgiGOFT5ouL3xigB-17" value="Backend App" style="rounded=0;whiteSpace=wrap;html=1;" parent="1" vertex="1">
          <mxGeometry x="950" y="400" width="120" height="60" as="geometry" />
        </mxCell>
        <mxCell id="olm5dgiGOFT5ouL3xigB-18" value="" style="endArrow=classic;html=1;rounded=0;exitX=1;exitY=0.5;exitDx=0;exitDy=0;entryX=0;entryY=0.5;entryDx=0;entryDy=0;" parent="1" source="olm5dgiGOFT5ouL3xigB-11" target="olm5dgiGOFT5ouL3xigB-15" edge="1">
          <mxGeometry width="50" height="50" relative="1" as="geometry">
            <mxPoint x="630" y="470" as="sourcePoint" />
            <mxPoint x="680" y="420" as="targetPoint" />
          </mxGeometry>
        </mxCell>
        <mxCell id="olm5dgiGOFT5ouL3xigB-19" value="" style="endArrow=classic;html=1;rounded=0;exitX=1;exitY=0.5;exitDx=0;exitDy=0;entryX=0;entryY=0.5;entryDx=0;entryDy=0;" parent="1" source="olm5dgiGOFT5ouL3xigB-11" target="olm5dgiGOFT5ouL3xigB-17" edge="1">
          <mxGeometry width="50" height="50" relative="1" as="geometry">
            <mxPoint x="630" y="470" as="sourcePoint" />
            <mxPoint x="680" y="420" as="targetPoint" />
          </mxGeometry>
        </mxCell>
        <mxCell id="olm5dgiGOFT5ouL3xigB-20" value="" style="endArrow=classic;html=1;rounded=0;exitX=1;exitY=0.5;exitDx=0;exitDy=0;entryX=-0.021;entryY=0.617;entryDx=0;entryDy=0;entryPerimeter=0;" parent="1" source="olm5dgiGOFT5ouL3xigB-11" target="olm5dgiGOFT5ouL3xigB-16" edge="1">
          <mxGeometry width="50" height="50" relative="1" as="geometry">
            <mxPoint x="630" y="470" as="sourcePoint" />
            <mxPoint x="680" y="420" as="targetPoint" />
          </mxGeometry>
        </mxCell>
        <mxCell id="olm5dgiGOFT5ouL3xigB-24" value="" style="edgeStyle=orthogonalEdgeStyle;rounded=0;orthogonalLoop=1;jettySize=auto;html=1;" parent="1" source="olm5dgiGOFT5ouL3xigB-21" target="olm5dgiGOFT5ouL3xigB-23" edge="1">
          <mxGeometry relative="1" as="geometry" />
        </mxCell>
        <mxCell id="olm5dgiGOFT5ouL3xigB-23" value="Secondary" style="shape=cylinder3;whiteSpace=wrap;html=1;boundedLbl=1;backgroundOutline=1;size=15;" parent="1" vertex="1">
          <mxGeometry x="560" y="120" width="60" height="80" as="geometry" />
        </mxCell>
        <mxCell id="olm5dgiGOFT5ouL3xigB-28" value="" style="swimlane;startSize=0;" parent="1" vertex="1">
          <mxGeometry x="430" y="280" width="200" height="300" as="geometry" />
        </mxCell>
        <mxCell id="olm5dgiGOFT5ouL3xigB-34" value="" style="swimlane;startSize=0;" parent="1" vertex="1">
          <mxGeometry x="200" y="100" width="460" height="550" as="geometry" />
        </mxCell>
        <mxCell id="olm5dgiGOFT5ouL3xigB-35" value="API Gateway" style="text;html=1;align=center;verticalAlign=middle;resizable=0;points=[];autosize=1;strokeColor=none;fillColor=none;" parent="olm5dgiGOFT5ouL3xigB-34" vertex="1">
          <mxGeometry x="170" width="90" height="30" as="geometry" />
        </mxCell>
        <mxCell id="olm5dgiGOFT5ouL3xigB-36" value="Redis Cache" style="shape=cylinder3;whiteSpace=wrap;html=1;boundedLbl=1;backgroundOutline=1;size=15;" parent="olm5dgiGOFT5ouL3xigB-34" vertex="1">
          <mxGeometry x="180" y="40" width="60" height="80" as="geometry" />
        </mxCell>
        <mxCell id="olm5dgiGOFT5ouL3xigB-21" value="Primary" style="shape=cylinder3;whiteSpace=wrap;html=1;boundedLbl=1;backgroundOutline=1;size=15;" parent="olm5dgiGOFT5ouL3xigB-34" vertex="1">
          <mxGeometry x="270" y="30" width="60" height="80" as="geometry" />
        </mxCell>
        <mxCell id="olm5dgiGOFT5ouL3xigB-37" value="" style="endArrow=classic;html=1;rounded=0;exitX=0;exitY=0;exitDx=0;exitDy=0;entryX=0.855;entryY=1;entryDx=0;entryDy=-4.35;entryPerimeter=0;" parent="1" source="olm5dgiGOFT5ouL3xigB-28" target="olm5dgiGOFT5ouL3xigB-36" edge="1">
          <mxGeometry width="50" height="50" relative="1" as="geometry">
            <mxPoint x="630" y="460" as="sourcePoint" />
            <mxPoint x="680" y="410" as="targetPoint" />
          </mxGeometry>
        </mxCell>
        <mxCell id="olm5dgiGOFT5ouL3xigB-38" value="" style="endArrow=classic;html=1;rounded=0;exitX=0.323;exitY=-0.005;exitDx=0;exitDy=0;exitPerimeter=0;entryX=0.375;entryY=1.031;entryDx=0;entryDy=0;entryPerimeter=0;" parent="1" source="olm5dgiGOFT5ouL3xigB-28" target="olm5dgiGOFT5ouL3xigB-21" edge="1">
          <mxGeometry width="50" height="50" relative="1" as="geometry">
            <mxPoint x="630" y="460" as="sourcePoint" />
            <mxPoint x="680" y="410" as="targetPoint" />
          </mxGeometry>
        </mxCell>
        <mxCell id="olm5dgiGOFT5ouL3xigB-39" value="" style="endArrow=classic;html=1;rounded=0;exitX=1.003;exitY=0.617;exitDx=0;exitDy=0;exitPerimeter=0;entryX=0.004;entryY=0.642;entryDx=0;entryDy=0;entryPerimeter=0;" parent="1" source="olm5dgiGOFT5ouL3xigB-34" target="olm5dgiGOFT5ouL3xigB-11" edge="1">
          <mxGeometry width="50" height="50" relative="1" as="geometry">
            <mxPoint x="670" y="440" as="sourcePoint" />
            <mxPoint x="680" y="410" as="targetPoint" />
          </mxGeometry>
        </mxCell>
        <mxCell id="olm5dgiGOFT5ouL3xigB-40" value="Primary" style="shape=cylinder3;whiteSpace=wrap;html=1;boundedLbl=1;backgroundOutline=1;size=15;" parent="1" vertex="1">
          <mxGeometry x="940" y="130" width="60" height="80" as="geometry" />
        </mxCell>
        <mxCell id="olm5dgiGOFT5ouL3xigB-41" value="Secondary" style="shape=cylinder3;whiteSpace=wrap;html=1;boundedLbl=1;backgroundOutline=1;size=15;" parent="1" vertex="1">
          <mxGeometry x="1040" y="130" width="60" height="80" as="geometry" />
        </mxCell>
        <mxCell id="olm5dgiGOFT5ouL3xigB-42" value="" style="endArrow=classic;html=1;rounded=0;exitX=1;exitY=0.5;exitDx=0;exitDy=0;exitPerimeter=0;entryX=0;entryY=0.5;entryDx=0;entryDy=0;entryPerimeter=0;" parent="1" source="olm5dgiGOFT5ouL3xigB-40" target="olm5dgiGOFT5ouL3xigB-41" edge="1">
          <mxGeometry width="50" height="50" relative="1" as="geometry">
            <mxPoint x="790" y="430" as="sourcePoint" />
            <mxPoint x="840" y="380" as="targetPoint" />
          </mxGeometry>
        </mxCell>
        <mxCell id="olm5dgiGOFT5ouL3xigB-43" value="" style="endArrow=classic;html=1;rounded=0;exitX=0.25;exitY=0;exitDx=0;exitDy=0;entryX=0.675;entryY=0.994;entryDx=0;entryDy=0;entryPerimeter=0;" parent="1" source="olm5dgiGOFT5ouL3xigB-15" target="olm5dgiGOFT5ouL3xigB-40" edge="1">
          <mxGeometry width="50" height="50" relative="1" as="geometry">
            <mxPoint x="790" y="430" as="sourcePoint" />
            <mxPoint x="840" y="380" as="targetPoint" />
          </mxGeometry>
        </mxCell>
        <mxCell id="olm5dgiGOFT5ouL3xigB-53" style="edgeStyle=orthogonalEdgeStyle;rounded=0;orthogonalLoop=1;jettySize=auto;html=1;exitX=0.5;exitY=1;exitDx=0;exitDy=0;entryX=0.788;entryY=0;entryDx=0;entryDy=0;entryPerimeter=0;" parent="1" source="olm5dgiGOFT5ouL3xigB-44" target="olm5dgiGOFT5ouL3xigB-46" edge="1">
          <mxGeometry relative="1" as="geometry" />
        </mxCell>
        <mxCell id="olm5dgiGOFT5ouL3xigB-44" value="" style="swimlane;startSize=0;" parent="1" vertex="1">
          <mxGeometry x="710" y="100" width="440" height="560" as="geometry" />
        </mxCell>
        <mxCell id="olm5dgiGOFT5ouL3xigB-45" value="Backend Application" style="text;html=1;align=center;verticalAlign=middle;resizable=0;points=[];autosize=1;strokeColor=none;fillColor=none;" parent="olm5dgiGOFT5ouL3xigB-44" vertex="1">
          <mxGeometry x="150" width="130" height="30" as="geometry" />
        </mxCell>
        <mxCell id="olm5dgiGOFT5ouL3xigB-46" value="" style="swimlane;startSize=0;" parent="1" vertex="1">
          <mxGeometry x="520" y="820" width="480" height="210" as="geometry" />
        </mxCell>
        <mxCell id="olm5dgiGOFT5ouL3xigB-49" value="Monitoring Backend" style="whiteSpace=wrap;html=1;aspect=fixed;" parent="olm5dgiGOFT5ouL3xigB-46" vertex="1">
          <mxGeometry x="300" y="20" width="140" height="140" as="geometry" />
        </mxCell>
        <mxCell id="olm5dgiGOFT5ouL3xigB-47" value="Monitoring System" style="text;html=1;align=center;verticalAlign=middle;resizable=0;points=[];autosize=1;strokeColor=none;fillColor=none;" parent="1" vertex="1">
          <mxGeometry x="670" y="775" width="120" height="30" as="geometry" />
        </mxCell>
        <mxCell id="olm5dgiGOFT5ouL3xigB-48" value="Monitoring Dashboard" style="whiteSpace=wrap;html=1;aspect=fixed;" parent="1" vertex="1">
          <mxGeometry x="580" y="840" width="140" height="140" as="geometry" />
        </mxCell>
        <mxCell id="olm5dgiGOFT5ouL3xigB-50" value="" style="endArrow=classic;html=1;rounded=0;exitX=0.81;exitY=0.998;exitDx=0;exitDy=0;exitPerimeter=0;entryX=0.101;entryY=0;entryDx=0;entryDy=0;entryPerimeter=0;" parent="1" source="olm5dgiGOFT5ouL3xigB-34" target="olm5dgiGOFT5ouL3xigB-46" edge="1">
          <mxGeometry width="50" height="50" relative="1" as="geometry">
            <mxPoint x="600" y="900" as="sourcePoint" />
            <mxPoint x="650" y="850" as="targetPoint" />
          </mxGeometry>
        </mxCell>
        <mxCell id="olm5dgiGOFT5ouL3xigB-51" value="Push Metrics" style="text;html=1;align=center;verticalAlign=middle;resizable=0;points=[];autosize=1;strokeColor=none;fillColor=none;" parent="1" vertex="1">
          <mxGeometry x="565" y="715" width="90" height="30" as="geometry" />
        </mxCell>
        <mxCell id="olm5dgiGOFT5ouL3xigB-54" value="Push Metrics" style="text;html=1;align=center;verticalAlign=middle;resizable=0;points=[];autosize=1;strokeColor=none;fillColor=none;" parent="1" vertex="1">
          <mxGeometry x="905" y="705" width="90" height="30" as="geometry" />
        </mxCell>
        <mxCell id="olm5dgiGOFT5ouL3xigB-58" value="Central Logging System" style="whiteSpace=wrap;html=1;aspect=fixed;" parent="1" vertex="1">
          <mxGeometry x="350" y="690" width="160" height="160" as="geometry" />
        </mxCell>
        <mxCell id="olm5dgiGOFT5ouL3xigB-59" value="" style="endArrow=classic;html=1;rounded=0;exitX=0.479;exitY=1;exitDx=0;exitDy=0;entryX=0.447;entryY=-0.012;entryDx=0;entryDy=0;entryPerimeter=0;exitPerimeter=0;" parent="1" source="olm5dgiGOFT5ouL3xigB-34" target="olm5dgiGOFT5ouL3xigB-58" edge="1">
          <mxGeometry width="50" height="50" relative="1" as="geometry">
            <mxPoint x="640" y="730" as="sourcePoint" />
            <mxPoint x="690" y="680" as="targetPoint" />
          </mxGeometry>
        </mxCell>
      </root>
    </mxGraphModel>
  </diagram>
</mxfile>
